<svg width="37" height="37" viewBox="0 0 37 37" fill="none" xmlns="http://www.w3.org/2000/svg">
<circle cx="18.6626" cy="18.2209" r="18.2209" fill="#F3F3F3"/>
<path d="M24.3862 11.2112C24.1318 11.2112 23.8832 11.2866 23.6717 11.4279C23.4602 11.5693 23.2953 11.7701 23.198 12.0051C23.1006 12.2402 23.0751 12.4988 23.1248 12.7483C23.1744 12.9978 23.2969 13.2269 23.4768 13.4068C23.6566 13.5867 23.8858 13.7092 24.1353 13.7588C24.3848 13.8084 24.6434 13.783 24.8784 13.6856C25.1134 13.5883 25.3143 13.4234 25.4556 13.2119C25.597 13.0004 25.6724 12.7517 25.6724 12.4973C25.6724 12.1562 25.5369 11.8291 25.2957 11.5879C25.0545 11.3467 24.7273 11.2112 24.3862 11.2112ZM29.3166 13.805C29.2957 12.9157 29.1292 12.0358 28.8235 11.2004C28.551 10.4857 28.1268 9.83847 27.5802 9.30334C27.0495 8.75395 26.4008 8.33246 25.6831 8.07075C24.85 7.75581 23.9691 7.58544 23.0786 7.56699C21.9425 7.50269 21.5781 7.50269 18.6627 7.50269C15.7474 7.50269 15.383 7.50269 14.2469 7.56699C13.3563 7.58544 12.4755 7.75581 11.6423 8.07075C10.926 8.33511 10.2779 8.75624 9.74523 9.30334C9.19585 9.83407 8.77435 10.4828 8.51264 11.2004C8.1977 12.0336 8.02733 12.9144 8.00889 13.805C7.94458 14.9411 7.94458 15.3055 7.94458 18.2208C7.94458 21.1362 7.94458 21.5006 8.00889 22.6367C8.02733 23.5272 8.1977 24.4081 8.51264 25.2412C8.77435 25.9589 9.19585 26.6076 9.74523 27.1383C10.2779 27.6854 10.926 28.1066 11.6423 28.3709C12.4755 28.6859 13.3563 28.8562 14.2469 28.8747C15.383 28.939 15.7474 28.939 18.6627 28.939C21.5781 28.939 21.9425 28.939 23.0786 28.8747C23.9691 28.8562 24.85 28.6859 25.6831 28.3709C26.4008 28.1092 27.0495 27.6877 27.5802 27.1383C28.1293 26.6052 28.5538 25.9574 28.8235 25.2412C29.1292 24.4059 29.2957 23.526 29.3166 22.6367C29.3166 21.5006 29.3809 21.1362 29.3809 18.2208C29.3809 15.3055 29.3809 14.9411 29.3166 13.805ZM27.3873 22.5081C27.3795 23.1885 27.2563 23.8626 27.0229 24.5017C26.8518 24.9681 26.5769 25.3896 26.219 25.7343C25.8714 26.0885 25.4508 26.3628 24.9864 26.5381C24.3473 26.7715 23.6732 26.8947 22.9929 26.9025C21.9211 26.9561 21.5245 26.9669 18.7056 26.9669C15.8867 26.9669 15.4902 26.9669 14.4183 26.9025C13.7119 26.9158 13.0085 26.807 12.339 26.581C11.8951 26.3967 11.4937 26.1231 11.16 25.7771C10.8043 25.4328 10.5328 25.011 10.3669 24.5445C10.1052 23.8963 9.96007 23.2069 9.93816 22.5081C9.93816 21.4363 9.87385 21.0397 9.87385 18.2208C9.87385 15.402 9.87385 15.0054 9.93816 13.9336C9.94296 13.238 10.0699 12.5487 10.3133 11.8971C10.502 11.4447 10.7916 11.0415 11.16 10.7181C11.4857 10.3496 11.8881 10.0569 12.339 9.86068C12.9923 9.62493 13.6809 9.50171 14.3755 9.49626C15.4473 9.49626 15.8439 9.43195 18.6627 9.43195C21.4816 9.43195 21.8782 9.43195 22.95 9.49626C23.6304 9.50407 24.3044 9.62729 24.9436 9.86068C25.4306 10.0414 25.8678 10.3353 26.219 10.7181C26.5703 11.0474 26.8447 11.4499 27.0229 11.8971C27.2611 12.5498 27.3844 13.2388 27.3873 13.9336C27.4409 15.0054 27.4516 15.402 27.4516 18.2208C27.4516 21.0397 27.4409 21.4363 27.3873 22.5081ZM18.6627 12.7224C17.5757 12.7245 16.5137 13.0488 15.6109 13.6543C14.7081 14.2597 14.005 15.1192 13.5905 16.1241C13.176 17.129 13.0686 18.2342 13.282 19.3001C13.4954 20.366 14.0199 21.3447 14.7893 22.1126C15.5587 22.8805 16.5384 23.4031 17.6047 23.6144C18.671 23.8257 19.776 23.7161 20.7801 23.2997C21.7841 22.8832 22.6423 22.1785 23.246 21.2745C23.8497 20.3705 24.1719 19.3079 24.1719 18.2208C24.1733 17.4975 24.0317 16.781 23.7552 16.1125C23.4787 15.4441 23.0728 14.8369 22.5608 14.3259C22.0488 13.8149 21.4408 13.4102 20.7718 13.135C20.1029 12.8598 19.3861 12.7196 18.6627 12.7224ZM18.6627 21.79C17.9568 21.79 17.2668 21.5807 16.6798 21.1885C16.0929 20.7963 15.6354 20.2389 15.3653 19.5867C15.0951 18.9345 15.0245 18.2169 15.1622 17.5245C15.2999 16.8322 15.6398 16.1962 16.139 15.6971C16.6381 15.1979 17.2741 14.858 17.9664 14.7203C18.6588 14.5826 19.3764 14.6532 20.0286 14.9234C20.6808 15.1935 21.2382 15.651 21.6304 16.2379C22.0226 16.8249 22.2319 17.5149 22.2319 18.2208C22.2319 18.6895 22.1396 19.1537 21.9602 19.5867C21.7808 20.0197 21.5179 20.4132 21.1865 20.7446C20.8551 21.076 20.4616 21.3389 20.0286 21.5183C19.5956 21.6977 19.1314 21.79 18.6627 21.79Z" fill="#00534E"/>
</svg>
