<svg width="38" height="37" viewBox="0 0 38 37" fill="none" xmlns="http://www.w3.org/2000/svg">
<circle cx="19.1043" cy="18.2209" r="18.2209" fill="#F3F3F3"/>
<path d="M29.8225 12.6476C29.0169 12.9971 28.1649 13.2281 27.2931 13.3335C28.2129 12.784 28.9021 11.9196 29.233 10.9005C28.3687 11.415 27.4225 11.7776 26.4356 11.9723C25.7759 11.257 24.8975 10.7808 23.9381 10.6185C22.9786 10.4561 21.9924 10.6169 21.1342 11.0754C20.2759 11.534 19.5941 12.2644 19.1957 13.1522C18.7974 14.04 18.7049 15.0349 18.9329 15.9809C17.1852 15.8925 15.4757 15.4375 13.9154 14.6453C12.355 13.8531 10.9788 12.7416 9.87605 11.3828C9.48928 12.0582 9.28604 12.8232 9.28656 13.6015C9.28518 14.3243 9.46257 15.0362 9.80291 15.6739C10.1432 16.3116 10.636 16.8552 11.2373 17.2564C10.5384 17.2374 9.85449 17.0498 9.24368 16.7097V16.7633C9.24892 17.7761 9.60381 18.7559 10.2483 19.5372C10.8928 20.3184 11.7874 20.853 12.7807 21.0506C12.3983 21.167 12.0013 21.2283 11.6017 21.2328C11.325 21.2296 11.0491 21.2045 10.7764 21.1578C11.0592 22.029 11.6066 22.7903 12.3424 23.3359C13.0781 23.8814 13.9656 24.1841 14.8814 24.2017C13.335 25.4185 11.4258 26.0826 9.45805 26.0881C9.09978 26.0893 8.74179 26.0678 8.38623 26.0238C10.3953 27.321 12.7365 28.0096 15.1279 28.0067C16.7782 28.0238 18.4154 27.7119 19.9437 27.0893C21.4721 26.4666 22.8611 25.5457 24.0296 24.3802C25.1981 23.2147 26.1226 21.8281 26.7492 20.3013C27.3757 18.7745 27.6918 17.1382 27.6789 15.4879C27.6789 15.3057 27.6789 15.1127 27.6789 14.9198C28.52 14.2926 29.2453 13.5237 29.8225 12.6476Z" fill="#00534E"/>
</svg>
