<svg width="100" height="100" viewBox="0 0 100 100" fill="none" xmlns="http://www.w3.org/2000/svg">
<path d="M43.8068 22.1375C49.4248 28.0217 55.0417 33.9081 60.6774 39.7744C64.4528 43.7053 68.2647 47.6004 72.0453 51.526C73.3917 52.9239 73.3582 52.9671 71.6621 53.9401C69.4059 55.236 67.1414 56.5182 64.927 57.8835C63.9848 58.4642 63.3786 58.481 62.5431 57.6016C55.6698 50.3658 48.7369 43.1846 41.8238 35.9855C39.7477 33.8229 37.6957 31.636 35.5965 29.4965C34.7297 28.6129 33.4859 28.5698 32.7907 29.283C32.0191 30.075 32.0777 31.2857 32.9268 32.1967C41.427 41.3165 49.9273 50.4352 58.4254 59.556C63.0394 64.5072 63.5524 70.7817 59.8305 76.3714C58.349 78.5961 56.1096 79.8457 53.8984 81.1374C50.7502 82.9772 47.5915 84.8001 44.4402 86.6346C38.5751 90.05 32.7153 93.4739 26.8461 96.882C25.0715 97.9128 23.344 99.012 21.3202 99.5706C13.7371 101.661 5.96661 95.8774 6.00011 87.515C6.03675 78.5014 6.00848 69.4879 6.01791 60.4743C6.02838 49.9703 6.02209 39.4672 6.07444 28.9632C6.09538 24.7578 6.94342 20.7459 9.2729 17.1516C11.0203 14.4546 13.3466 12.3593 16.0676 10.731C18.5112 9.26884 21.7401 10.0872 23.2602 12.4108C24.9207 14.949 24.3616 18.0657 21.8866 19.9507C20.5675 20.9552 19.1844 21.863 18.3102 23.3598C17.2622 25.1543 17.0162 27.1056 17.0131 29.1178C16.9848 45.6186 16.9628 62.1184 16.9419 78.6192C16.9387 81.4541 16.9366 84.2889 16.9544 87.1237C16.9659 88.9508 17.8056 89.4599 19.3404 88.5648C25.8923 84.7433 32.4347 80.906 38.9845 77.0814C42.185 75.2122 45.395 73.3588 48.5966 71.4917C49.2101 71.1341 49.8153 70.7607 50.4099 70.3715C51.0894 69.9276 51.6108 68.8473 50.9449 67.8291C49.765 66.0251 48.1391 64.6271 46.7205 63.0441C44.3365 60.3828 41.8385 57.8257 39.397 55.216C35.3474 50.8875 31.2852 46.5716 27.2711 42.2105C25.8064 40.6191 24.1858 39.1633 23.0697 37.2551C18.8882 30.1055 22.3347 20.8837 30.1963 18.4055C34.5778 17.0243 38.6139 17.8353 42.2332 20.6754C42.4949 20.8816 43.521 21.8378 43.8068 22.1375Z" fill="#D72B1D"/>
</svg>
