<svg width="25" height="25" viewBox="0 0 25 25" fill="none" xmlns="http://www.w3.org/2000/svg">
<path d="M17.2561 22.9156H17.2853C17.8353 22.9156 18.3551 22.699 18.7489 22.3052L21.5739 19.4802C21.6707 19.3836 21.7475 19.2688 21.7999 19.1424C21.8523 19.016 21.8793 18.8806 21.8793 18.7438C21.8793 18.607 21.8523 18.4715 21.7999 18.3451C21.7475 18.2188 21.6707 18.104 21.5739 18.0073L17.4072 13.8406C17.3105 13.7438 17.1957 13.667 17.0694 13.6146C16.943 13.5622 16.8075 13.5352 16.6707 13.5352C16.5339 13.5352 16.3985 13.5622 16.2721 13.6146C16.1457 13.667 16.0309 13.7438 15.9343 13.8406L14.2739 15.5011C13.5041 15.2719 12.0676 14.7511 11.1572 13.8406C10.2468 12.9302 9.72594 11.4938 9.49677 10.724L11.1572 9.06355C11.254 8.9669 11.3308 8.8521 11.3832 8.72573C11.4356 8.59936 11.4626 8.4639 11.4626 8.32709C11.4626 8.19029 11.4356 8.05482 11.3832 7.92845C11.3308 7.80209 11.254 7.68729 11.1572 7.59064L6.99052 3.42397C6.79138 3.236 6.52791 3.13129 6.25407 3.13129C5.98023 3.13129 5.71675 3.236 5.51761 3.42397L2.69365 6.24897C2.29782 6.6448 2.0749 7.18855 2.08323 7.74376C2.10719 9.22709 2.4999 14.3792 6.56032 18.4396C10.6207 22.5 15.7728 22.8917 17.2561 22.9156ZM6.25511 5.63334L8.94886 8.32709L7.60198 9.67397C7.47941 9.7962 7.38938 9.94715 7.34007 10.1131C7.29076 10.279 7.28376 10.4546 7.31969 10.624C7.34469 10.7438 7.95615 13.5844 9.68532 15.3136C11.4145 17.0427 14.2551 17.6542 14.3749 17.6792C14.5442 17.7153 14.7199 17.7084 14.8859 17.6591C15.0518 17.6098 15.2028 17.5196 15.3249 17.3969L16.6718 16.05L19.3655 18.7438L17.2759 20.8323C15.9759 20.8104 11.528 20.4615 8.03323 16.9656C4.52698 13.4594 4.1874 8.99584 4.16657 7.72189L6.25511 5.63334ZM20.8322 11.4573H22.9155C22.9155 6.11355 18.8811 2.08334 13.5301 2.08334V4.16668C17.7614 4.16668 20.8322 7.2323 20.8322 11.4573Z" fill="black"/>
<path d="M13.5405 8.33333C15.7312 8.33333 16.6655 9.26771 16.6655 11.4583H18.7489C18.7489 8.09896 16.8999 6.25 13.5405 6.25V8.33333Z" fill="#121212"/>
</svg>
